<svg width="40" height="40" viewBox="0 0 40 40" fill="none" xmlns="http://www.w3.org/2000/svg">
<path d="M28.3334 17.1733V23.9583C28.3334 24.65 28.0687 25.3156 27.5936 25.8184C27.1185 26.3213 26.469 26.6233 25.7784 26.6624L25.625 26.6666H14.375C13.6832 26.6666 13.0177 26.402 12.5148 25.9269C12.012 25.4518 11.71 24.8023 11.6709 24.1116L11.6667 23.9583V17.1733L19.71 21.3866C19.7995 21.4335 19.899 21.4579 20 21.4579C20.101 21.4579 20.2005 21.4335 20.29 21.3866L28.3334 17.1733ZM14.375 13.3333H25.625C26.2963 13.3332 26.9438 13.5824 27.4417 14.0326C27.9397 14.4829 28.2527 15.102 28.32 15.7699L20 20.1283L11.68 15.7699C11.7446 15.1285 12.0359 14.5312 12.5015 14.0853C12.9671 13.6394 13.5764 13.3742 14.22 13.3374L14.375 13.3333Z" fill="#2FAEE5"/>
<rect x="1" y="1" width="38" height="38" rx="9" stroke="#2FAEE5" stroke-width="2"/>
</svg>
