<svg width="17" height="13" viewBox="0 0 17 13" fill="none" xmlns="http://www.w3.org/2000/svg">
<path d="M17 3.744V10.3594C17 11.0339 16.7301 11.6828 16.2455 12.1731C15.7609 12.6633 15.0984 12.9578 14.3939 12.9959L14.2375 13H2.7625C2.05688 13 1.378 12.742 0.865104 12.2788C0.352212 11.8155 0.0441989 11.1823 0.0042501 10.5089L0 10.3594V3.744L8.2042 7.852C8.29547 7.8977 8.39697 7.92157 8.5 7.92157C8.60303 7.92157 8.70453 7.8977 8.7958 7.852L17 3.744ZM2.7625 1.91791e-08H14.2375C14.9222 -7.88244e-05 15.5826 0.242934 16.0905 0.681905C16.5985 1.12088 16.9177 1.72452 16.9864 2.37575L8.5 6.62513L0.0136 2.37575C0.0794949 1.75038 0.376592 1.16798 0.851488 0.733251C1.32638 0.29852 1.94793 0.0399644 2.6044 0.00406261L2.7625 1.91791e-08Z" fill="#2FAEE5"/>
</svg>
