<svg width="12" height="18" viewBox="0 0 12 18" fill="none" xmlns="http://www.w3.org/2000/svg">
<path fill-rule="evenodd" clip-rule="evenodd" d="M11.4992 8.21636L11.4943 8.41258L11.4992 8.6201L11.4943 8.81794L11.4992 9.02384L11.3452 15.688C11.3361 16.089 11.1801 16.4731 10.9064 16.7686C10.6327 17.0641 10.2599 17.2509 9.85746 17.2941C7.29342 17.5686 4.70576 17.5686 2.14173 17.2941C1.73918 17.2511 1.36617 17.0644 1.09228 16.7689C0.818384 16.4733 0.662312 16.0892 0.653174 15.688L0.5 9.02384L0.504889 8.81632L0.5 8.6201L0.504889 8.41339L0.5 8.21636L0.636879 2.85386L0.642582 2.74808L0.65073 2.37503C0.660847 1.96249 0.822405 1.56776 1.10513 1.26482C1.38785 0.961874 1.77234 0.771501 2.18654 0.729375C2.25743 0.7213 2.32912 0.71484 2.40001 0.707573C2.49796 0.68499 2.5973 0.668806 2.69739 0.659124C4.89366 0.446959 7.10553 0.446959 9.30179 0.659124C9.40282 0.669621 9.50222 0.685771 9.59836 0.707573L9.81264 0.729375C10.2267 0.771685 10.611 0.962138 10.8935 1.26506C11.1761 1.56799 11.3375 1.96261 11.3476 2.37503L11.3566 2.74889C11.359 2.78361 11.3607 2.81833 11.3615 2.85386L11.4992 8.21636ZM9.25861 13.6669C9.42068 13.6669 9.5761 13.6031 9.6907 13.4895C9.8053 13.3759 9.86968 13.2219 9.86968 13.0613C9.86968 12.9006 9.8053 12.7466 9.6907 12.633C9.5761 12.5195 9.42068 12.4556 9.25861 12.4556H2.74057C2.57851 12.4556 2.42308 12.5195 2.30849 12.633C2.19389 12.7466 2.12951 12.9006 2.12951 13.0613C2.12951 13.2219 2.19389 13.3759 2.30849 13.4895C2.42308 13.6031 2.57851 13.6669 2.74057 13.6669H9.25861ZM5.99959 16.8564C6.32372 16.8564 6.63458 16.7288 6.86377 16.5017C7.09296 16.2745 7.22172 15.9664 7.22172 15.6452C7.22172 15.324 7.09296 15.0159 6.86377 14.7887C6.63458 14.5616 6.32372 14.434 5.99959 14.434C5.67546 14.434 5.36461 14.5616 5.13542 14.7887C4.90622 15.0159 4.77746 15.324 4.77746 15.6452C4.77746 15.9664 4.90622 16.2745 5.13542 16.5017C5.36461 16.7288 5.67546 16.8564 5.99959 16.8564Z" fill="#2FAEE5"/>
</svg>
